<?xml version="1.0" encoding="iso-8859-1"?>
<!-- Uploaded to: SVG Repo, www.svgrepo.com, Generator: SVG Repo Mixer Tools -->
<!DOCTYPE svg PUBLIC "-//W3C//DTD SVG 1.1//EN" "http://www.w3.org/Graphics/SVG/1.1/DTD/svg11.dtd">
<svg fill="#000000" height="800px" width="800px" version="1.1" id="Capa_1" xmlns="http://www.w3.org/2000/svg" xmlns:xlink="http://www.w3.org/1999/xlink" 
	 viewBox="0 0 200.102 200.102" xml:space="preserve">
<g>
	<path d="M192.602,175.124h-11.387V54.31c0-4.142-3.357-7.5-7.5-7.5h-29.332V17.478c0-4.142-3.357-7.5-7.5-7.5H63.219
		c-4.143,0-7.5,3.358-7.5,7.5V46.81H26.387c-4.142,0-7.5,3.358-7.5,7.5v120.814H7.5c-4.143,0-7.5,3.358-7.5,7.5
		c0,4.142,3.357,7.5,7.5,7.5h18.887h46.039h55.248h46.041h18.887c4.143,0,7.5-3.358,7.5-7.5
		C200.102,178.482,196.744,175.124,192.602,175.124z M70.719,24.978h58.664v58.664H70.719V24.978z M79.926,175.124v-39.156h12.625
		v39.156H79.926z M107.551,175.124v-39.156h12.623v39.156H107.551z M135.174,175.124v-46.656c0-4.142-3.357-7.5-7.5-7.5H72.426
		c-4.143,0-7.5,3.358-7.5,7.5v46.656H33.887V61.81h21.832v29.332c0,4.142,3.357,7.5,7.5,7.5h73.664c4.143,0,7.5-3.358,7.5-7.5V61.81
		h21.832v113.314H135.174z"/>
	<path d="M84.287,61.81h8.264v8.264c0,4.142,3.357,7.5,7.5,7.5c4.143,0,7.5-3.358,7.5-7.5V61.81h8.264c4.143,0,7.5-3.358,7.5-7.5
		s-3.357-7.5-7.5-7.5h-8.264v-8.264c0-4.142-3.357-7.5-7.5-7.5c-4.143,0-7.5,3.358-7.5,7.5v8.264h-8.264c-4.143,0-7.5,3.358-7.5,7.5
		S80.145,61.81,84.287,61.81z"/>
</g>
</svg>